<?xml version="1.0" encoding="UTF-8" standalone="no"?>
<svg
   width="1024"
   height="1024"
   version="1.1"
   viewBox="0 0 271 271"
   xml:space="preserve"
   id="svg216"
   sodipodi:docname="bg_tile.svg"
   inkscape:version="1.4.2 (f4327f4, 2025-05-13)"
   xmlns:inkscape="http://www.inkscape.org/namespaces/inkscape"
   xmlns:sodipodi="http://sodipodi.sourceforge.net/DTD/sodipodi-0.dtd"
   xmlns="http://www.w3.org/2000/svg"
   xmlns:svg="http://www.w3.org/2000/svg"><defs
     id="defs216" /><sodipodi:namedview
     id="namedview216"
     pagecolor="#ffffff"
     bordercolor="#666666"
     borderopacity="1.0"
     inkscape:showpageshadow="2"
     inkscape:pageopacity="0.0"
     inkscape:pagecheckerboard="0"
     inkscape:deskcolor="#d1d1d1"
     inkscape:zoom="0.79785156"
     inkscape:cx="511.37332"
     inkscape:cy="512"
     inkscape:current-layer="svg216" /><g
     transform="matrix(.0581 .0146 -.0146 .0581 -11.7 -14.8)"
     id="g9"><path
       d="m29.1 29.5h116v116h-116z"
       id="path1" /><path
       d="m192 29.5h116v116h-116z"
       id="path2" /><path
       d="m354 29.5h116v116h-116z"
       id="path3" /><path
       d="m29.6 192h116v116h-116z"
       id="path4" /><path
       d="m192 192h116v116h-116z"
       id="path5" /><path
       d="m355 192h116v116h-116z"
       id="path6" /><path
       d="m29.9 354h116v116h-116z"
       id="path7" /><path
       d="m192 354h116v116h-116z"
       id="path8" /><path
       d="m355 354h116v116h-116z"
       id="path9" /></g><g
     transform="matrix(.0585 -.0131 .0131 .0585 -14.4 115)"
     clip-rule="evenodd"
     fill-rule="evenodd"
     id="g20"><path
       d="m251 345c-15.7 0-31.3-0.094-47 0.076-3.29 0.035-4.98-0.713-6.06-4.1-9.58-30-19.3-60-29.2-90-1-3.04-0.645-4.63 2.02-6.55 25.7-18.5 51.2-37.1 76.8-55.8 2.45-1.8 4.06-1.81 6.52-0.01 25.8 18.9 51.6 37.7 77.6 56.4 2.33 1.68 2.85 3.13 2 5.73-9.94 30.3-19.9 60.6-29.6 90.9-0.918 2.85-2.36 3.41-5.03 3.4-16-0.099-32-0.049-48-0.048z"
       id="path10" /><path
       d="m81.2 361h5c32.3 0 64.7 0.049 97-0.069 3.51-0.013 5.15 0.878 6.3 4.48 9.9 31 20.1 61.9 30.1 92.8 0.404 1.24 0.718 2.51 1.2 4.2-1.44 0.171-2.68 0.443-3.91 0.444-32.8 0.023-65.7-2e-3 -98.5 0.057-2.74 5e-3 -4.47-0.372-5.47-3.51-10.2-31.9-20.6-63.8-30.9-95.7-0.2-0.62-0.368-1.25-0.801-2.73z"
       id="path11" /><path
       d="m421 361c-4.33 13.3-8.59 26.4-12.8 39.4-6.31 19.4-12.7 38.8-18.9 58.2-0.783 2.45-1.48 4.01-4.57 4-33.3-0.105-66.6-0.067-99.9-0.084-0.78-1e-3 -1.56-0.191-2.92-0.369 2.51-7.88 4.88-15.4 7.32-22.9 8.09-24.9 16.3-49.8 24.3-74.8 0.905-2.82 2.14-3.88 5.2-3.87 33 0.112 65.9 0.068 98.9 0.083 0.98 1e-3 1.96 0.173 3.42 0.311z"
       id="path12" /><path
       d="m62.5 303c-4.52-13.7-8.9-26.9-13.2-40.1-6.19-19.1-12.3-38.2-18.5-57.3-0.828-2.52-0.974-4.13 1.48-5.9 27.5-19.9 55-39.8 82.4-59.7 0.253-0.184 0.618-0.213 1.53-0.508 10.9 33.5 21.8 67 32.7 101-28.8 20.9-57.4 41.7-86.5 62.8z"
       id="path13" /><path
       d="m337 104c-12.4 9.03-24.2 17.6-36 26.2-15.6 11.3-31.2 22.6-46.8 34-2.06 1.51-3.6 2.32-6.1 0.488-27-19.7-54-39.4-81.1-59-0.669-0.486-1.48-0.782-2.72-1.43 15.4-11.2 29.7-21.6 44.1-32.1 13-9.48 26.1-18.9 39.1-28.4 2.08-1.53 3.58-2.33 6.09-0.498 27.5 20.1 55.1 40.1 83.4 60.7z"
       id="path14" /><path
       d="m386 140c19.4 14.1 38.3 27.8 57.1 41.4 8.61 6.26 17.3 12.4 25.8 18.9 1.3 0.99 2.52 3.71 2.07 5.1-10.2 32.1-20.7 64.1-31.1 96.1-0.19 0.585-0.5 1.13-0.938 2.1-13.7-9.93-27.1-19.7-40.6-29.4-14-10.2-28-20.3-41.9-30.6-1.33-0.992-2.74-3.65-2.32-4.97 10.4-32.7 21.1-65.3 31.9-98.6z"
       id="path15" /><path
       d="m373 130c-11 33.8-21.9 67.3-32.9 101-25.3-18.4-50-36.3-75.4-54.8 28.9-21 57.5-41.8 86.1-62.6 7.49 5.44 14.7 10.7 22.2 16.1z"
       id="path16" /><path
       d="m205 361h92.4c-2.2 6.85-4.28 13.4-6.39 19.9-8.41 25.9-16.9 51.7-25.2 77.6-1.05 3.3-2.49 4.48-5.92 4.33-6.32-0.266-12.7 0.098-19-0.206-1.49-0.071-3.8-1.45-4.23-2.73-10.7-32.4-21.3-64.9-31.8-97.4-0.091-0.285 0.04-0.646 0.105-1.47z"
       id="path17" /><path
       d="m154 257c9.64 29.7 19.1 58.7 28.7 88.2h-5.09c-32.3 0-64.6-0.081-97 0.105-3.93 0.022-5.59-1.3-6.58-4.86-1.64-5.91-3.82-11.7-5.42-17.6-0.366-1.35 0.156-3.8 1.16-4.54 27.8-20.4 55.7-40.6 84.2-61.3z"
       id="path18" /><path
       d="m237 176c-25 18.2-49.6 36.1-74.9 54.4-2.38-7.35-4.59-14.2-6.8-21-8.25-25.4-16.4-50.9-24.8-76.2-1.02-3.08-0.643-4.78 2.06-6.6 6.06-4.1 11.9-8.53 18.3-13.2 28.5 20.7 57.2 41.5 86.2 62.6z"
       id="path19" /><path
       d="m320 345c9.44-29.1 18.8-58 28.4-87.5 9.35 6.8 18.3 13.3 27.3 19.9 18.4 13.4 36.8 26.8 55.3 40.1 2.6 1.87 3.31 3.44 2.11 6.56-2.26 5.87-4.09 11.9-5.84 18-0.72 2.48-1.81 3.46-4.48 3.45-33.6-0.088-67.2-0.066-101-0.084-0.487 0-0.976-0.141-2.01-0.302z"
       id="path20" /></g><g
     transform="matrix(.0591 -.0274 .0274 .0591 200 14.5)"
     id="g24"><path
       d="m46.8 46.8h174v174h-174z"
       id="path21" /><path
       d="m280 46.8h174v174h-174z"
       id="path22" /><path
       d="m46.8 280h174v174h-174z"
       id="path23" /><path
       d="m280 280h174v174h-174z"
       id="path24" /></g><g
     transform="matrix(.0595 .00691 -.00691 .0595 68.6 69.8)"
     id="g73"><path
       d="m29.2 25.7h46.1v46.1h-46.1z"
       id="path25" /><path
       d="m95 25.7h46.1v46.1h-46.1z"
       id="path26" /><path
       d="m29.2 92.7h46.1v46.1h-46.1z"
       id="path27" /><path
       d="m95 92.7h46.1v46.1h-46.1z"
       id="path28" /><path
       d="m161 25.9h46.1v46.1h-46.1z"
       id="path29" /><path
       d="m227 25.9h46.1v46.1h-46.1z"
       id="path30" /><path
       d="m161 92.9h46.1v46.1h-46.1z"
       id="path31" /><path
       d="m227 92.9h46.1v46.1h-46.1z"
       id="path32" /><path
       d="m29.2 160h46.1v46.1h-46.1z"
       id="path33" /><path
       d="m95 160h46.1v46.1h-46.1z"
       id="path34" /><path
       d="m29.2 227h46.1v46.1h-46.1z"
       id="path35" /><path
       d="m95 227h46.1v46.1h-46.1z"
       id="path36" /><path
       d="m161 160h46.1v46.1h-46.1z"
       id="path37" /><path
       d="m227 160h46.1v46.1h-46.1z"
       id="path38" /><path
       d="m161 227h46.1v46.1h-46.1z"
       id="path39" /><path
       d="m227 227h46.1v46.1h-46.1z"
       id="path40" /><path
       d="m293 25.9h46.1v46.1h-46.1z"
       id="path41" /><path
       d="m293 92.9h46.1v46.1h-46.1z"
       id="path42" /><path
       d="m293 160h46.1v46.1h-46.1z"
       id="path43" /><path
       d="m293 227h46.1v46.1h-46.1z"
       id="path44" /><path
       d="m29.3 294h46.1v46.1h-46.1z"
       id="path45" /><path
       d="m95.1 294h46.1v46.1h-46.1z"
       id="path46" /><path
       d="m161 294h46.1v46.1h-46.1z"
       id="path47" /><path
       d="m227 294h46.1v46.1h-46.1z"
       id="path48" /><path
       d="m293 294h46.1v46.1h-46.1z"
       id="path49" /><path
       d="m358 25.9h46.1v46.1h-46.1z"
       id="path50" /><path
       d="m358 92.9h46.1v46.1h-46.1z"
       id="path51" /><path
       d="m358 160h46.1v46.1h-46.1z"
       id="path52" /><path
       d="m358 227h46.1v46.1h-46.1z"
       id="path53" /><path
       d="m424 25.9h46.1v46.1h-46.1z"
       id="path54" /><path
       d="m424 92.9h46.1v46.1h-46.1z"
       id="path55" /><path
       d="m424 160h46.1v46.1h-46.1z"
       id="path56" /><path
       d="m424 227h46.1v46.1h-46.1z"
       id="path57" /><path
       d="m359 294h46.1v46.1h-46.1z"
       id="path58" /><path
       d="m424 294h46.1v46.1h-46.1z"
       id="path59" /><path
       d="m29.3 361h46.1v46.1h-46.1z"
       id="path60" /><path
       d="m95.1 361h46.1v46.1h-46.1z"
       id="path61" /><path
       d="m161 361h46.1v46.1h-46.1z"
       id="path62" /><path
       d="m227 361h46.1v46.1h-46.1z"
       id="path63" /><path
       d="m293 361h46.1v46.1h-46.1z"
       id="path64" /><path
       d="m29.4 428h46.1v46.1h-46.1z"
       id="path65" /><path
       d="m95.2 428h46.1v46.1h-46.1z"
       id="path66" /><path
       d="m161 428h46.1v46.1h-46.1z"
       id="path67" /><path
       d="m227 428h46.1v46.1h-46.1z"
       id="path68" /><path
       d="m293 428h46.1v46.1h-46.1z"
       id="path69" /><path
       d="m359 361h46.1v46.1h-46.1z"
       id="path70" /><path
       d="m424 361h46.1v46.1h-46.1z"
       id="path71" /><path
       d="m359 428h46.1v46.1h-46.1z"
       id="path72" /><path
       d="m424 428h46.1v46.1h-46.1z"
       id="path73" /></g><g
     transform="matrix(.0475 -.0341 .0341 .0475 43.6 227)"
     id="g89"><path
       d="m23.4 20.3h87.1v87.1h-87.1z"
       id="path74" /><path
       d="m145 20.3h87.1v87.1h-87.1z"
       id="path75" /><path
       d="m23.4 144h87.1v87.1h-87.1z"
       id="path76" /><path
       d="m145 144h87.1v87.1h-87.1z"
       id="path77" /><path
       d="m267 20.7h87.1v87.1h-87.1z"
       id="path78" /><path
       d="m389 20.7h87.1v87.1h-87.1z"
       stroke-miterlimit="10"
       id="path79" /><path
       d="m267 145h87.1v87.1h-87.1z"
       id="path80" /><path
       d="m389 145h87.1v87.1h-87.1z"
       id="path81" /><path
       d="m23.4 269h87.1v87.1h-87.1z"
       id="path82" /><path
       d="m145 269h87.1v87.1h-87.1z"
       id="path83" /><path
       d="m23.4 393h87.1v87.1h-87.1z"
       id="path84" /><path
       d="m145 393h87.1v87.1h-87.1z"
       id="path85" /><path
       d="m267 269h87.1v87.1h-87.1z"
       id="path86" /><path
       d="m389 269h87.1v87.1h-87.1z"
       id="path87" /><path
       d="m267 393h87.1v87.1h-87.1z"
       id="path88" /><path
       d="m389 393h87.1v87.1h-87.1z"
       id="path89" /></g><g
     transform="matrix(.0279 .0575 -.0575 .0279 187 84.3)"
     id="g94"><path
       transform="rotate(45)"
       d="m215-138h276v276h-276z"
       stroke-width=".956"
       id="path90" /><path
       d="m43 43.5h188l-188 188z"
       id="path91" /><path
       d="m43 456v-188l188 188z"
       id="path92" /><path
       d="m457 456h-188l188-188z"
       id="path93" /><path
       d="m457 43.5v188l-188-188z"
       id="path94" /></g><g
     transform="matrix(.0564 .021 -.021 .0564 228 194)"
     id="g119"><path
       d="m30.3 26.8h60.9v60.9h-60.9z"
       id="path95" /><path
       d="m125 26.8h60.9v60.9h-60.9z"
       id="path96" /><path
       d="m30.3 123h60.9v60.9h-60.9z"
       id="path97" /><path
       d="m125 123h60.9v60.9h-60.9z"
       id="path98" /><path
       d="m220 27.1h60.9v60.9h-60.9z"
       id="path99" /><path
       d="m314 27.1h60.9v60.9h-60.9z"
       id="path100" /><path
       d="m220 123h60.9v60.9h-60.9z"
       id="path101" /><path
       d="m314 123h60.9v60.9h-60.9z"
       id="path102" /><path
       d="m30.3 220h60.9v60.9h-60.9z"
       id="path103" /><path
       d="m125 220h60.9v60.9h-60.9z"
       id="path104" /><path
       d="m30.3 316h60.9v60.9h-60.9z"
       id="path105" /><path
       d="m125 316h60.9v60.9h-60.9z"
       id="path106" /><path
       d="m220 220h60.9v60.9h-60.9z"
       id="path107" /><path
       d="m314 220h60.9v60.9h-60.9z"
       id="path108" /><path
       d="m220 316h60.9v60.9h-60.9z"
       id="path109" /><path
       d="m314 316h60.9v60.9h-60.9z"
       id="path110" /><path
       d="m409 27.1h60.9v60.9h-60.9z"
       id="path111" /><path
       d="m409 123h60.9v60.9h-60.9z"
       id="path112" /><path
       d="m409 220h60.9v60.9h-60.9z"
       id="path113" /><path
       d="m409 316h60.9v60.9h-60.9z"
       id="path114" /><path
       d="m30.4 412h60.9v60.9h-60.9z"
       id="path115" /><path
       d="m125 412h60.9v60.9h-60.9z"
       id="path116" /><path
       d="m220 412h60.9v60.9h-60.9z"
       id="path117" /><path
       d="m314 412h60.9v60.9h-60.9z"
       id="path118" /><path
       d="m409 412h60.9v60.9h-60.9z"
       id="path119" /></g><g
     transform="matrix(.0571 -.01 .01 .0571 112 178)"
     id="g155"><path
       d="m21.8 18.5h56v56h-56z"
       id="path120" /><path
       d="m102 18.5h56v56h-56z"
       id="path121" /><path
       d="m21.8 99.9h56v56h-56z"
       id="path122" /><path
       d="m102 99.9h56v56h-56z"
       id="path123" /><path
       d="m182 18.8h56v56h-56z"
       id="path124" /><path
       d="m262 18.8h56v56h-56z"
       id="path125" /><path
       d="m182 100h56v56h-56z"
       id="path126" /><path
       d="m262 100h56v56h-56z"
       id="path127" /><path
       d="m21.8 181h56v56h-56z"
       id="path128" /><path
       d="m102 181h56v56h-56z"
       id="path129" /><path
       d="m21.8 263h56v56h-56z"
       id="path130" /><path
       d="m102 263h56v56h-56z"
       id="path131" /><path
       d="m182 181h56v56h-56z"
       id="path132" /><path
       d="m262 181h56v56h-56z"
       id="path133" /><path
       d="m182 263h56v56h-56z"
       id="path134" /><path
       d="m262 263h56v56h-56z"
       id="path135" /><path
       d="m341 18.8h56v56h-56z"
       id="path136" /><path
       d="m341 100h56v56h-56z"
       id="path137" /><path
       d="m341 181h56v56h-56z"
       id="path138" /><path
       d="m341 263h56v56h-56z"
       id="path139" /><path
       d="m22 344h56v56h-56z"
       id="path140" /><path
       d="m102 344h56v56h-56z"
       id="path141" /><path
       d="m183 344h56v56h-56z"
       id="path142" /><path
       d="m262 344h56v56h-56z"
       id="path143" /><path
       d="m342 344h56v56h-56z"
       id="path144" /><path
       d="m421 18.8h56v56h-56z"
       id="path145" /><path
       d="m422 100h56v56h-56z"
       id="path146" /><path
       d="m422 181h56v56h-56z"
       id="path147" /><path
       d="m422 263h56v56h-56z"
       id="path148" /><path
       d="m422 344h56v56h-56z"
       id="path149" /><path
       d="m22.6 425h56v56h-56z"
       id="path150" /><path
       d="m102 425h56v56h-56z"
       id="path151" /><path
       d="m183 425h56v56h-56z"
       id="path152" /><path
       d="m262 425h56v56h-56z"
       id="path153" /><path
       d="m342 425h56v56h-56z"
       id="path154" /><path
       d="m422 425h56v56h-56z"
       id="path155" /></g><path
     d="m138 134c4.07-6.07 2.45-14.3-3.62-18.4s-14.3-2.45-18.4 3.62-2.45 14.3 3.62 18.4 14.3 2.45 18.4-3.62zm-0.999-0.67-11.1-3.57 1e-3 -2e-3c-0.284-0.0932-0.56-0.226-0.821-0.401-1.53-1.02-1.94-3.09-0.919-4.61 1.02-1.52 3.08-1.92 4.61-0.9 0.261 0.175 0.489 0.38 0.683 0.607l2e-3 -3e-3zm-3.44-2.31-4.93-5.84-1e-3 2e-3c-0.128-0.15-0.276-0.285-0.448-0.4-1-0.673-2.36-0.408-3.03 0.593-0.671 1-0.401 2.36 0.604 3.03 0.172 0.115 0.353 0.201 0.54 0.262l-1e-3 2e-3z"
     stroke-width=".063"
     id="path156" /><g
     transform="matrix(.0694 -.00673 .00673 .0694 157 222)"
     id="g166"><path
       d="m298 333v-8.21c-14.7 0-29.2 0.015-43.6-3e-3 -19.2-0.023-38.3 0.072-57.5-0.166-10.3-0.129-18.3-7.22-20.3-17.3-1.85-9.16 3.03-19.1 12-23 3.38-1.47 7.4-2.04 11.1-2.05 40.8-0.139 81.6 9e-3 122-0.161 9.12-0.038 15.4 4.22 21.6 10.4 25.3 24.9 51 49.4 76.5 74 3.6 3.47 6.9 7.31 10.8 10.3 6.22 4.79 8.26 10.6 8.04 18.4-0.553 20.1-0.186 40.3-0.184 60.5v8.48c-9.52-9.16-17.7-17.7-26.6-25.4-13.7-11.9-27.8-23.3-41.8-34.7-8.52-6.96-18.8-9.4-29.4-9.31-23.1 0.192-46.3 1.24-69.4 1.43-28.3 0.242-56.7-0.366-85 0.079-12.6 0.199-23-4.5-31.5-12.8-29.8-29.1-59.2-58.6-88.8-87.9-6.6-6.56-8.23-14.5-5.22-22.9 2.91-8.22 9.27-12.9 18-13.8 6.88-0.682 12.6 2 17.6 6.69 19.7 18.5 39.5 36.8 59.2 55.2 3.78 3.52 7.47 7.14 11.4 10.5 1.27 1.08 3.17 2 4.78 2.01 41.3 0.085 82.6 0.04 124 2e-3 0.472 0 0.942-0.21 1.73-0.399z"
       clip-rule="evenodd"
       fill-rule="evenodd"
       id="path157" /><path
       d="m131 43.3h55.9v55.9h-55.9z"
       id="path158" /><path
       d="m210 43.3h55.9v55.9h-55.9z"
       id="path159" /><path
       d="m288 43.3h55.9v55.9h-55.9z"
       id="path160" /><path
       d="m132 122h55.9v55.9h-55.9z"
       id="path161" /><path
       d="m210 122h55.9v55.9h-55.9z"
       id="path162" /><path
       d="m288 122h55.9v55.9h-55.9z"
       id="path163" /><path
       d="m132 200h55.9v55.9h-55.9z"
       id="path164" /><path
       d="m210 200h55.9v55.9h-55.9z"
       id="path165" /><path
       d="m288 200h55.9v55.9h-55.9z"
       id="path166" /></g><g
     transform="matrix(.0706 -.0249 .0249 .0706 94.3 -7.93)"
     clip-rule="evenodd"
     fill-rule="evenodd"
     id="g175"><path
       d="m250 71.2c20.5 35.6 40.6 70.3 60.9 105h-122c20.2-35 40.3-69.8 60.9-105z"
       id="path167" /><path
       d="m98.7 333c20.4 35.4 40.5 70.1 60.7 105h-121c20.3-35.1 40.3-69.9 60.7-105z"
       id="path168" /><path
       d="m401 333c20.4 35.3 40.4 70 60.7 105h-121c20.2-35 40.3-69.8 60.7-105z"
       id="path169" /><path
       d="m189 438c20.4-35.3 40.4-70 60.7-105 20.4 35.3 40.4 70 60.7 105h-121z"
       id="path170" /><path
       d="m189 194h121c-20.3 35.1-40.3 69.9-60.7 105-20.3-35.2-40.4-69.9-60.7-105z"
       id="path171" /><path
       d="m265 307c20.3-35.1 40.2-69.7 60.7-105 20.5 35.4 40.4 70.1 60.7 105h-121z"
       id="path172" /><path
       d="m326 430c-20.4-35.4-40.4-70-60.6-105h121c-20.2 35-40.2 69.6-60.6 105z"
       id="path173" /><path
       d="m235 307h-121c20.2-35.1 40.2-69.7 60.7-105 20.4 35.4 40.4 70 60.7 105z"
       id="path174" /><path
       d="m114 325h121c-20.2 35-40.2 69.6-60.6 105-20.4-35.2-40.3-69.8-60.6-105z"
       id="path175" /></g><path
     d="m153 33.6-5.04 6.97 7.67 9.43 4.33-11.4zm8.3 6-4.11 10.8 8.95-7.29zm6.17 4.46-9.43 7.67 11.4 4.33 5.04-6.97zm-20.5-2.16-3.5 4.84 10.8 4.11zm21.4 15.5-10.8-4.11 7.29 8.95zm-14.5-5-11.4-4.33-5.04 6.97 6.97 5.04zm2.41 1.74-4.33 11.4 6.97 5.04 5.04-6.97zm-1.55-0.387-8.95 7.29 4.84 3.5z"
     stroke-width=".0661"
     id="path176" /><g
     transform="matrix(.0607 .0341 -.0341 .0607 205 136)"
     id="g182"><g
       clip-rule="evenodd"
       fill-rule="evenodd"
       id="g179"><path
         d="m234 349c29-79.7 57.7-159 86.7-238 40 0.633 75.7 13.6 107 38.8-28.9 79.4-57.6 158-86.5 238-32.4-21.5-68.1-34.4-107-38.4z"
         id="path177" /><path
         d="m331 80.1c4.42-12 8.56-23.5 12.9-34.8 0.492-1.3 1.74-2.75 2.99-3.24 13.6-5.38 27.5-9.13 42.2-9.44 20.9-0.437 35.9 10.4 48 25.9 5.23 6.66 9.43 14.1 14 21.3 0.604 0.951 1.01 2.52 0.665 3.5-4.17 11.7-8.49 23.4-12.9 35.4-32.8-21.7-68.4-34.5-108-38.6z"
         id="path178" /><path
         d="m251 466c-0.836-1.8-1.43-3.06-2.02-4.32-10.1-21.8-20.3-43.5-30.4-65.3-1.48-3.17 0.235-13.6 2.84-15.8 0.808-0.685 2.33-0.77 3.51-0.734 37.8 1.16 71.6 13.5 101 36.8 2.05 1.6 2.33 2.97 1.69 5.56-1.72 6.97-5.66 11-12.4 13.9-21.5 9.45-42.7 19.7-64.6 29.9z"
         id="path179" /></g><path
       d="m71.6 62.5h100v100h-100z"
       id="path180" /><path
       d="m72.1 202h100v100h-100z"
       id="path181" /><path
       d="m72.3 342h100v100h-100z"
       id="path182" /></g><g
     transform="matrix(.0656 -.0314 .0314 .0656 41.6 148)"
     id="g186"><path
       d="m64.9 51.5h100v100h-100z"
       id="path183" /><path
       d="m65.4 192h100v100h-100z"
       id="path184" /><path
       d="m65.7 332h100v100h-100z"
       id="path185" /><path
       d="m406 242c4.93-76.7 73.9-190-58.7-190-111 0-119 96.2-119 190 0 85 4.04 187 107 190 143 4.99 76.3-105 70.8-190z"
       id="path186" /></g><g
     transform="matrix(-.0663 .0298 -.0298 -.0663 57.9 58.7)"
     id="g191"><path
       d="m73 160h74.7v74.7h-74.7z"
       id="path187" /><path
       d="m73.3 265h74.7v74.7h-74.7z"
       id="path188" /><path
       d="m73.5 370h74.7v74.7h-74.7z"
       id="path189" /><path
       d="m72.9 55.7h74.7v74.7h-74.7z"
       id="path190" /><path
       d="m415 250c4.93-76.7 73.9-190-58.7-190-111 0-119 96.2-119 190 0 85 4.04 187 107 190 143 4.99 76.3-105 70.8-190z"
       id="path191" /></g><g
     transform="matrix(.0551 .0355 -.0355 .0551 228 68.9)"
     id="g197"><path
       d="m74.9 220h61.2v61.2h-61.2z"
       id="path192" /><path
       d="m75.2 305h61.2v61.2h-61.2z"
       id="path193" /><path
       d="m75.4 391h61.2v61.2h-61.2z"
       id="path194" /><path
       d="m74.9 134h61.2v61.2h-61.2z"
       id="path195" /><path
       d="m74.8 48.5h61.2v61.2h-61.2z"
       id="path196" /><path
       d="m413 250c4.93-76.7 73.9-190-58.7-190-111 0-119 96.2-119 190 0 85 4.04 187 107 190 143 4.99 76.3-105 70.8-190z"
       id="path197" /></g><g
     transform="matrix(-.0461 -.0368 .0368 -.0461 32.2 222)"
     id="g216"><path
       transform="matrix(.707 -.707 .707 .707 -74.5 74.4)"
       d="m32.6 107h40v40h-40z"
       id="path198" /><path
       transform="matrix(.707 -.707 .707 .707 -34.9 90.8)"
       d="m72.2 67.5h40v40h-40z"
       id="path199" /><path
       transform="matrix(.707 -.707 .707 .707 4.75 107)"
       d="m112 27.9h40v40h-40z"
       id="path200" /><path
       transform="matrix(.707 -.707 .707 .707 -90.7 114)"
       d="m72.3 147h40v40h-40z"
       id="path201" /><path
       transform="matrix(.707 -.707 .707 .707 -51.1 130)"
       d="m112 107h40v40h-40z"
       id="path202" /><path
       transform="matrix(.707 -.707 .707 .707 -11.5 147)"
       d="m152 67.3h40v40h-40z"
       id="path203" /><path
       transform="matrix(.707 -.707 .707 .707 -107 154)"
       d="m112 186h40v40h-40z"
       id="path204" /><path
       transform="matrix(.707 -.707 .707 .707 -67.4 170)"
       d="m152 146h40v40h-40z"
       id="path205" /><path
       transform="matrix(.707 -.707 .707 .707 -27.8 186)"
       d="m191 107h40v40h-40z"
       id="path206" /><path
       transform="matrix(.707 -.707 .707 .707 -240 143)"
       d="m32.5 341h40v40h-40z"
       id="path207" /><path
       transform="matrix(.707 -.707 .707 .707 -200 159)"
       d="m72.1 301h40v40h-40z"
       id="path208" /><path
       transform="matrix(.707 -.707 .707 .707 -161 176)"
       d="m112 262h40v40h-40z"
       id="path209" /><path
       transform="matrix(.707 -.707 .707 .707 -256 182)"
       d="m72.2 381h40v40h-40z"
       id="path210" /><path
       transform="matrix(.707 -.707 .707 .707 -217 199)"
       d="m112 341h40v40h-40z"
       id="path211" /><path
       transform="matrix(.707 -.707 .707 .707 -177 215)"
       d="m151 301h40v40h-40z"
       id="path212" /><path
       transform="matrix(.707 -.707 .707 .707 -273 222)"
       d="m112 420h40v40h-40z"
       id="path213" /><path
       transform="matrix(.707 -.707 .707 .707 -233 239)"
       d="m151 380h40v40h-40z"
       id="path214" /><path
       transform="matrix(.707 -.707 .707 .707 -193 255)"
       d="m191 341h40v40h-40z"
       id="path215" /><path
       d="m443 250c4.93-76.7 73.9-190-58.7-190-111 0-119 96.2-119 190 0 85 4.04 187 107 190 143 4.99 76.3-105 70.8-190z"
       id="path216" /></g></svg>
