<?xml version="1.0" encoding="UTF-8"?>
<svg width="1024" height="1024" version="1.1" viewBox="0 0 1024 1024" xml:space="preserve" xmlns="http://www.w3.org/2000/svg">
<g>
	<path d="m0 0c11 214 23 427 45 641 10 87 19 174 39 260 7 28 14 58 32 83 6 9 19 17 30 11 18-10 28-29 38-45 30-56 51-116 74-175 54-145 106-291 182-427 49-86 110-168 193-225 69-48 151-76 233-91 52-10 105-15 157-19V5c-116 3-241 7-354 25-88 14-175 41-252 84-63 34-119 80-175 123-27 20-55 41-88 50-20 5-43 0-58-14-26-24-40-58-52-91C24 123 12 62 0 0z" fill="#ff8c00"/>
	<path d="M1024 1024c-11-214-23-427-45-641-10-87-19-174-39-260-7-28-14-58-32-83-6-9-19-17-30-11-18 10-28 29-38 45-30 56-51 116-74 175-54 145-106 291-182 427-49 86-110 168-193 225-69 48-151 76-233 91-52 10-105 15-157 19v8c116-3 241-7 354-25 88-14 175-41 252-84 63-34 119-80 175-123 27-20 55-41 88-50 20-5 43 0 58 14 26 24 40 58 52 91 20 59 32 120 44 182Z" fill="#32cd32"/>
</g>
</svg>
