<?xml version="1.0" encoding="UTF-8"?>
<svg width="272" height="272" version="1.1" viewBox="0 0 272 272" xmlns="http://www.w3.org/2000/svg">
<defs><path id="a" d="M0 0C2.4 15.2 5.4 30.3 10.2 45c3.1 9.3 6.6 18.8 13.6 26 4 4.1 10.1 6.3 15.8 4.9 8.6-1.9 15.8-7.4 22.8-12.4 15-11.4 29.5-23.4 46.1-32.7C128.7 19.2 151.2 12 174.2 8.1c31.4-5.3 63.1-6.3 97-7.2L271.5 3.1c-13.4 1-26.8 2.3-40 4.7-22.4 3.9-44.6 11.3-63.2 24.3-22 15.2-38.3 37-51.3 59.7-20.2 35.5-33.9 74-48.1 112.1-6.2 16-11.9 32.3-20 47.5-2.7 4.5-5.4 9.7-10.3 12.3-3 1.5-6.3-.5-7.9-2.9-4.5-6.5-6.3-14.3-8.3-21.8-5.2-22.4-7.8-45.4-10.3-68.3C6.2 114 3 56.9 0 0Z"/></defs>
<use href="#a" fill="#ff8c00"/>
<use href="#a" transform="matrix(-1 0 0 -1 272 272)" fill="#32cd32"/>
</svg>
