<?xml version="1.0" encoding="UTF-8"?>
<svg width="1158" height="272" version="1.1" viewBox="0 0 1158 272" xmlns="http://www.w3.org/2000/svg">
	<style>#b{fill:black}@media(prefers-color-scheme:dark){#b{fill:white}}</style>
	<defs><path id="a" d="M0 0C2.4 15.2 5.4 30.3 10.2 45c3.1 9.3 6.6 18.8 13.6 26 4 4.1 10.1 6.3 15.8 4.9 8.6-1.9 15.8-7.4 22.8-12.4 15-11.4 29.5-23.4 46.1-32.7C128.7 19.2 151.2 12 174.2 8.1c31.4-5.3 63.1-6.3 97-7.2L271.5 3.1c-13.4 1-26.8 2.3-40 4.7-22.4 3.9-44.6 11.3-63.2 24.3-22 15.2-38.3 37-51.3 59.7-20.2 35.5-33.9 74-48.1 112.1-6.2 16-11.9 32.3-20 47.5-2.7 4.5-5.4 9.7-10.3 12.3-3 1.5-6.3-.5-7.9-2.9-4.5-6.5-6.3-14.3-8.3-21.8-5.2-22.4-7.8-45.4-10.3-68.3C6.2 114 3 56.9 0 0Z"/></defs>
	<use href="#a" fill="#ff8c00"/>
	<use href="#a" transform="matrix(-1 0 0 -1 272 272)" fill="#32cd32"/>
	<g id="b">
		<path d="m383 189q-14.9 0-26-4.8t-17.5-14.3q-6.2-9.5-6.7-24V117.6q.5-14.1 6.8-23.7 6.5-9.7 17.6-14.4 11.1-4.9 25.7-4.9 10.5 0 19.5 2.5t15.9 7.6q7 4.9 11 12.2 4.1 7.2 4.3 16.5 0 1.4-1.1 2.5-1 1-2.4 1h-24.8q-2.1 0-3.3-1-1.1-1-1.9-3.3-2.1-7.5-6.5-10-4.3-2.7-10.8-2.7-7.6 0-12.2 4.1-4.5 4.1-4.8 14.3V145q.3 10.2 4.8 14.3 4.6 4.1 12.2 4.1 6.5 0 11-2.7 4.5-2.9 6.4-10 .8-2.5 1.9-3.3 1.3-1 3.3-1h24.8q1.4 0 2.4 1.1 1.1 1 1.1 2.4-.2 9.4-4.3 16.7-4 7.2-11 12.2-6.8 4.9-15.9 7.5-9.1 2.7-19.5 2.7z"/>
		<path d="m474 189q-8.7 0-15.9-4-7-4.1-11.1-12.1t-4.1-19.8v-44.2q0-1.8 1.1-2.9 1.3-1.3 3-1.3h23q1.8 0 2.9 1.3 1.3 1.1 1.3 2.9V152q0 13.7 12.1 13.7T498.6 152v-43.1q0-1.8 1.1-2.9 1.3-1.3 3-1.3h22.9q1.8 0 2.9 1.3 1.3 1.1 1.3 2.9v74.4q0 1.8-1.3 3-1.1 1.1-2.9 1.1h-21.1q-1.8 0-3-1.1-1.1-1.3-1.1-3v-5.7q-4 5.7-10.8 8.6-6.7 2.9-15.4 2.8z"/>
		<path d="m546 74.8c-2.5 0-4.13 1.64-4.13 4.13v104c0 2.5 1.63 4.13 4.13 4.13h20.6c2.5 0 4.13-1.63 4.13-4.13v-4.61c2.54 3.08 5.78 5.57 9.7 7.47 4.03 1.9 8.91 2.86 14.6 2.86 5.09 0 9.65-.74 13.7-2.22 4.03-1.59 7.47-3.93 10.3-7 6.4-7.3 9.97-18.43 9.87-27.9.2-5.53.2-6.53 0-11.25.1-9.93-3.9-20.93-9.7-27.2-4.2-4.73-12.2-9.73-24.2-9.85-12 .12-19 5.12-22.59 8.74v-33.3c0-2.5-1.73-4.13-4.13-4.13zm39.2 52c3.19 0 5.62.64 7.31 1.9 1.69 1.27 2.91 3.03 3.66 5.25.85 2.12 1.38 4.56 1.59 7.31.21 3.4.21 6.78 0 10.2-.21 2.75-.74 5.25-1.59 7.47-.74 2.12-1.96 3.82-3.66 5.09s-4.14 1.9-7.31 1.9c-2.97 0-5.35-.64-7.15-1.9-1.8-1.38-3.13-3.13-3.98-5.25s-1.32-4.46-1.43-7c-.11-2.22-.16-4.24-.16-6.04s.05-3.77.16-5.88c.11-2.43.58-4.61 1.43-6.52.95-1.9 2.33-3.45 4.14-4.61 1.8-1.27 4.14-1.9 6.99-1.9z"/>
		<path d="m678 103c-8.5 0-15.9 1.6-22.2 4.8-6.3 3.1-11.1 7.7-14.6 13.8-3.5 6-5.4 13.3-5.7 21.9v4.1c.2 13.9 4.1 24.2 11.7 31.1s17.9 10.2 30.9 10.2c6.8 0 12.6-.8 17.6-2.4 5.1-1.7 9.3-3.8 12.5-6.4 3.3-2.5 5.8-5.1 7.5-7.6 1.7-2.6 2.6-4.9 2.7-6.8.1-1.1-.2-1.9-1-2.5-.6-.6-1.4-1-2.4-1h-22.9c-1.3 0-2.2.2-2.9.5-.5.2-1.3.9-2.2 2.1l-2.1 2.1c-.8.7-1.9 1.4-3 1.9s-2.4.8-4.1.8c-2.4 0-4.5-.6-6.2-1.9s-3-3-3.8-5.1c-.7-2.2-1.1-4.8-1.1-8.6h49.8c1.2 0 2.1-.4 2.9-1.1.8-.8 1.3-1.9 1.3-3v-4.1c0-8-1.6-15.1-4.8-21.4-3.1-6.5-7.8-11.6-14.1-15.4-6.3-3.8-14.1-6-23.8-6zm0 18.7c2.3 0 4.3.6 6 1.8 1.8 1.2 3.1 2.9 4 5.1.8 2.2 1.3 4.9 1.3 8.3h-22.5c0-3.4.4-6 1.3-8.3.8-2.2 2.1-3.9 3.8-5.1 1.7-1.2 3.8-1.8 6.1-1.8z"/>
		<path d="m779 189q13.7 0 24.9-4.2 11.1-4.3 17.5-12.2t6.4-19q0-10-4.3-16.5-4.1-6.6-13.3-10.6-9-4.1-23.8-6.5-8.2-1.8-13-3.2-4.6-1.6-6.5-3.5-1.9-2.1-1.9-4.8 0-4.1 3.2-6.2 3.4-2.1 9.4-2.1 5.6 0 9.1 2.1t4.5 4.8q1.1 1.5 2.4 2.1 1.3.6 3.2.6h24.3q1.4 0 2.4-1 1-1.1 1-2.4-.1-5.1-3.3-10.5-3-5.5-8.9-10.3-5.9-4.9-14.6-7.8-8.5-3-19.8-3-13.6 0-23.8 4.5-10.2 4.3-15.9 12.1-5.6 7.7-5.6 17.9 0 10 4.5 16.8 4.5 6.6 13.3 10.8t21 6.4q9 1.7 14.3 3.3 5.3 1.4 7.5 3.5 2.4 1.9 2.4 4.9 0 4.1-4.3 6.5-4.1 2.2-12.2 2.2-4.7 0-8-1-3.3-1.1-5.4-2.9-2.1-1.9-3.5-3.8-1.1-1.3-2.4-2.1t-3.5-.8h-23q-1.4 0-2.5 1.1-1 1-1 2.4.3 8.2 5.7 15.7 5.7 7.5 16.4 12.1T779 189Z"/>
		<path id="t" d="m882 188q-10.6 0-18.6-3.19-7.79-3.19-12.1-10.3-4.33-7.13-4.3-18.6v-27.6h-12.5q-1.75 0-3.03-1.11-1.11-1.27-1.11-2.86v-14.8q0-1.75 1.11-2.86 1.27-1.27 3.03-1.27h12.5v-26q0-1.75 1.11-2.86 1.27-1.27 2.86-1.27h21.3q1.75 0 2.86 1.27 1.27 1.11 1.27 2.86v26h19.8q1.75 0 2.86 1.27 1.27 1.11 1.27 2.86v14.8q0 1.59-1.27 2.86-1.11 1.11-2.86 1.11h-19.8v25.1q0 4.93 1.9 7.79 1.9 2.7 6.36 2.7h13q1.59 0 2.7 1.27 1.27 1.11 1.27 2.86v15.9q0 1.75-1.27 3.03-1.11 1.11-2.7 1.11z"/>
		<path d="m954 103c-6.8 0-12.6.8-17.5 2.5-4.9 1.6-8.9 3.6-11.9 6-3.1 2.4-5.3 5-6.8 7.6-1.4 2.5-2.1 4.7-2.2 6.5-.1 1.1.2 1.9.8 2.5.6.6 1.5 1 2.7 1h20.5c1.8 0 3.2-.6 4.1-1.9 1.2-1.7 2.5-3 4-4 1.6-1.1 3.7-1.6 6.2-1.6 3.6 0 6 .9 7.3 2.7s1.9 4.5 1.9 8v1.6l-19 3c-10.3 1.6-18.5 4.6-24.6 9.1-6.2 4.3-9.2 10.3-9.2 17.9 0 4.7 1.3 8.9 3.8 12.7 2.6 3.7 6.3 6.7 10.8 8.9 4.6 2.1 9.8 3.2 15.6 3.2 3.8 0 7.3-.5 10.3-1.4 3.1-1 5.7-2.2 8-3.8 2.3-1.7 4.2-3.6 5.7-5.7v5.3c0 1.2.4 2.2 1.1 3 .8.7 1.9 1.1 3 1.1h21.1c1.2 0 2.1-.4 2.9-1.1.8-.8 1.3-1.9 1.3-3v-47.6c0-4.8-.8-9.2-2.4-13.2-1.5-4-3.8-7.5-7-10.3s-7.3-5.1-12.4-6.7c-5-1.6-11-2.3-18.1-2.3zm9.4 47.7v1.6c0 3.8-.6 7-1.9 9.5-1.3 2.4-3 4.3-5.3 5.6-2.1 1.2-4.6 1.8-7.5 1.8-1.8 0-3.5-.3-4.9-1-1.5-.6-2.6-1.5-3.5-2.5-.8-1.1-1.3-2.3-1.3-3.8 0-2 .9-3.8 2.7-5.3 1.9-1.6 5-2.8 9.3-3.6z"/>
		<use href="#t" x="169"/>
		<path d="m1117 188.8q-10.6 0-18.1-2.2-7.5-2.4-12.2-5.7-4.6-3.5-6.8-7.2t-2.4-6.5q-.2-1.8 1-2.9 1.3-1.1 2.7-1.1h21q.5 0 .6.2.3 0 .8.3 2.1.8 4 2.4 1.9 1.4 4.3 2.7 2.5 1.3 6 1.3t5.9-1.4q2.5-1.4 2.5-4.1 0-2.2-1.3-3.8-1.3-1.6-5.4-3-4-1.4-12.5-3-8-1.6-14.3-4.6-6.4-3.2-10-8.3-3.5-5.3-3.5-12.7 0-6.5 4.1-12.4 4.3-6 12.5-9.9 8.2-3.8 20.3-3.8 9.4 0 16.4 2.2 7.2 2.1 11.9 5.6 4.9 3.3 7.5 7 2.5 3.7 2.7 6.5.2 1.8-1 3-1.1 1.1-2.5 1.1h-19q-.6 0-1.3-.2-.5-.2-1-.3-2.1-.8-4-2.2-1.8-1.4-4.1-2.7-2.2-1.3-5.6-1.3t-5.4 1.6q-1.9 1.6-1.9 4 0 1.9 1.1 3.5 1.3 1.6 5.3 2.9 4.1 1.3 12.9 2.9 11.1 1.8 17.6 5.9 6.7 4 9.4 9.2 2.9 5.3 2.9 10.8 0 8-4.8 14-4.6 5.9-13.8 9.2-9.2 3.2-22.5 3z"/>
	</g>
</svg>