<?xml version="1.0" encoding="UTF-8"?>
<svg width="265" height="265" version="1.1" viewBox="0 0 265 265" xmlns="http://www.w3.org/2000/svg">
<style>#a{fill:black}@media(prefers-color-scheme:dark){#a{fill:white}}</style>
<path d="M247 65.4A132.5 132.5 0 00134 0V30.2l.2 0a102.5 102.5 0 0186.9 50.3" fill="#FFD313"/>
<path d="M221 184.1a102.5 102.5 0 01-87 50.2v29.8a132.5 132.5 0 00113-65" fill="#0051BA"/>
<path d="m43.4 82.1a102.5 102.5 0 00-.181 100l-25.9 14.8a132.5 132.5 0 010-130" fill="#C62535"/>
<path d="m222 183a102.5 102.5 0 000-100l25.9-15.1a132.5 132.5 0 010 130" fill="#FF5800"/>
<path d="m18.6 65.3a132.5 132.5 0 01113-65.3v30.2a102.5 102.5 0 00-87 50.1" fill="#029347"/>
<path d="m44.3 184a102.5 102.5 0 0087.2 50.4v29.6a132.5 132.5 0 01-113-65.1" fill="#eee"/>
<path d="m47.1 81.7 85.5-49.2 85.7 49.4-85.6 49.2" fill="#0051BA"/>
<path d="M134 133v99l85.7-49.2v-99" fill="#C62535"/>
<path d="m45.8 183v-99.4l85.9 49.6v98.9" fill="#FFD313"/>
<g fill="#fff">
	<path d="m112 195c0-5.78 0-6.78-.632-7.41-.362-.452-8.04-4.79-17-9.67-17.8-9.67-19.5-10.8-21.9-13.1-1.93-1.93-2.95-7.77-3.07-17.5-.0903-12.5-.0903-12.9.632-13.5 1.54-1.08 1.26-1.26 23 10.8 19.1 10.6 18.1 10 18.5 9.31.18-.271.361-3.52.361-7.14 0-5.78 0-6.69-.632-7.41-.723-.903-35.9-20.3-38.7-21.4-6.41-2.53-10.4-1.44-12.6 3.34-1.26 2.98-1.54 6.14-1.54 20.1 0 18.3.723 23.1 4.61 29.7 1.9 3.16 7.05 8.4 10.5 10.7 1.36.903 10.3 5.87 20 11.1 12.7 6.96 17.5 9.4 17.9 9.12.362-.271.452-2.17.452-7.05v-.09z"/>
	<path d="m118 109c.813-.452 1.81-1.17 2.08-1.63s3.25-5.96 6.5-12.2l6.14-11.4 6.23 11.7c4.16 8.04 6.42 12 7.23 12.7 2.53 2.17 7.23 2.44 10 .452 1.44-.994 2.35-2.71 12-21.9 5.78-11.5 10.4-21.1 10.3-21.3-.18-.452-1.36-.542-6.32-.542-3.34 0-6.32.0903-6.5.271-.272.181-3.52 6.41-7.23 13.9l-7.14 13.4-6.05-11.4c-3.16-6.14-6.14-11.7-6.69-12.4-2.53-3.43-8.58-3.52-11.4-.181-.542.632-3.61 6.32-6.96 12.6l-6.23 11.6-6.78-13.3c-3.61-7.32-6.78-13.6-7.14-13.9-.452-.542-1.26-.632-6.41-.632-3.25 0-6.14.181-6.41.361-.542.361 2.35 6.78 13.6 29.7 6.05 12.3 6.78 13.5 9.49 14.5 1.9.723 5.6.452 7.5-.542h.091z"/>
	<path d="m183 124c-.271 0-.542 0-.813.09-1.45.361-3.7 2.53-4.7 4.7-.452.904-4.52 12.3-9.04 25.2l-12.6 35.8c-2.44 6.78-4.25 12.5-4.16 12.7.271.361 3.43-1.26 8.22-4.16l2.26-1.36 6.69-19.5 24.3-13.38c.181 0 1.45 2.17 2.98 4.88 1.44 2.71 2.98 5.24 3.34 5.69l.632.813 4.25-2.44c2.35-1.36 4.34-2.71 4.43-3.07 0-.362-3.7-7.77-8.31-16.5l-11.7-22.2c-3.16-5.96-4.16-7.41-5.87-7.32l.181.091zm-1.72 18.4c.542.181 6.69 11.6 6.42 11.9-.18.362-11.4 6.5-12.6 6.96-.542.181 0-1.9 2.62-9.4 1.81-5.33 3.43-9.58 3.61-9.49z"/>
</g>
<g id="a">
	<path d="m243 231a1 1 0 000 22.4 1 1 0 000-22.4m0 2.5a1 1 0 010 17.38 1 1 0 010-17.38z"/>
	<path d="M241.73 243.63h.81c.46 0 .91.18 1.18.36.36.18.63.63.9 1.17l1.45 2.89h3.16l-1.63-3.25c-.36-.73-.72-1.18-.99-1.54-.27-.36-.63-.54-1.08-.63.82-.27 1.36-.63 1.72-1.08.36-.54.54-.82.54-1.9s-.36-1.9-1.08-2.44-1.8-.81-3.34-.81h-4.61V248h2.98m0-6.5v-3.07H243c.64 0 1.09.18 1.36.36.27.27.45.62.45 1.17s-.18 1-.45 1.18c-.28.27-.73.36-1.36.36"/>
</g>
</svg>