<?xml version="1.0" encoding="UTF-8"?>
<svg width="3117" height="432" version="1.1" viewBox="0 0 825 114" xml:space="preserve" xmlns="http://www.w3.org/2000/svg" xmlns:xlink="http://www.w3.org/1999/xlink"><g transform="matrix(.265 0 0 .265 -49.9 -74.9)"><g transform="matrix(3.78 0 0 3.78 1295 85.8)"><g stroke-width=".265"><path d="m328 80.7c-6.77 0-12.6 0.847-17.5 2.54-4.87 1.59-8.84 3.6-11.9 6.03-3.07 2.43-5.34 4.97-6.83 7.62-1.38 2.54-2.12 4.71-2.22 6.51-0.106 1.06 0.159 1.9 0.794 2.54s1.53 0.952 2.7 0.952h20.5c1.8 0 3.17-0.635 4.13-1.9 1.16-1.69 2.49-3.02 3.97-3.97 1.59-1.06 3.65-1.59 6.19-1.59 3.6 0 6.03 0.899 7.3 2.7 1.27 1.8 1.9 4.44 1.9 7.94v1.59l-19 3.02c-10.3 1.59-18.5 4.6-24.6 9.05-6.14 4.34-9.21 10.3-9.21 17.9 0 4.66 1.27 8.89 3.81 12.7 2.65 3.7 6.24 6.67 10.8 8.89 4.55 2.12 9.74 3.18 15.6 3.18 3.81 0 7.25-0.476 10.3-1.43s5.72-2.22 7.94-3.81c2.33-1.69 4.23-3.6 5.71-5.71v5.24c0 1.16 0.37 2.17 1.11 3.02 0.847 0.741 1.85 1.11 3.02 1.11h21.1c1.16 0 2.12-0.37 2.86-1.11 0.847-0.847 1.27-1.85 1.27-3.02v-47.5c0-4.76-0.794-9.15-2.38-13.2-1.48-4.02-3.81-7.46-6.99-10.3s-7.3-5.08-12.4-6.67c-4.97-1.59-11-2.38-17.9-2.38zm9.37 47.6v1.59c0 3.81-0.635 6.98-1.91 9.52-1.27 2.43-3.02 4.29-5.24 5.56-2.12 1.16-4.6 1.75-7.46 1.75-1.8 0-3.44-0.318-4.92-0.953-1.48-0.635-2.65-1.48-3.49-2.54s-1.27-2.33-1.27-3.81c0-2.01 0.899-3.76 2.7-5.24 1.9-1.59 5.03-2.75 9.37-3.49z"/><path d="m52.5 80.7c-8.47 0-15.9 1.59-22.2 4.76-6.24 3.07-11.1 7.67-14.6 13.8-3.49 6.03-5.4 13.3-5.71 21.9v4.13c0.212 13.9 4.13 24.2 11.7 31s17.9 10.2 30.8 10.2c6.77 0 12.6-0.794 17.6-2.38 5.08-1.69 9.26-3.81 12.5-6.35 3.28-2.54 5.77-5.08 7.46-7.62 1.69-2.65 2.59-4.92 2.7-6.83 0.106-1.06-0.212-1.9-0.952-2.54-0.635-0.635-1.43-0.952-2.38-0.952h-22.9c-1.27 0-2.22 0.158-2.86 0.476-0.529 0.212-1.27 0.9-2.22 2.06l-2.06 2.06c-0.847 0.741-1.85 1.38-3.02 1.9-1.06 0.529-2.43 0.794-4.13 0.794-2.43 0-4.5-0.635-6.19-1.9-1.69-1.27-2.96-2.96-3.81-5.08-0.741-2.22-1.11-4.76-1.11-7.62v-0.953h49.7c1.16 0 2.12-0.37 2.86-1.11 0.847-0.847 1.27-1.85 1.27-3.02v-4.13c0-7.94-1.59-15.1-4.76-21.4-3.07-6.46-7.78-11.6-14.1-15.4-6.24-3.81-14.1-5.72-23.7-5.72zm0 18.7c2.33 0 4.34 0.582 6.03 1.75 1.8 1.16 3.12 2.86 3.97 5.08 0.847 2.22 1.27 4.87 1.27 7.94v0.317h-22.5v-0.317c0-3.07 0.424-5.72 1.27-7.94 0.847-2.22 2.12-3.92 3.81-5.08 1.69-1.16 3.76-1.75 6.19-1.75z"/><path d="m491 166q-10.6 0-18.1-2.22-7.46-2.38-12.2-5.72-4.6-3.49-6.83-7.14t-2.38-6.51q-0.159-1.75 0.952-2.86 1.27-1.11 2.7-1.11h21q0.476 0 0.635 0.159 0.318 0 0.794 0.318 2.06 0.794 3.97 2.38 1.9 1.43 4.29 2.7 2.54 1.27 6.03 1.27t5.87-1.43q2.54-1.43 2.54-4.13 0-2.22-1.27-3.81t-5.4-3.02q-3.97-1.43-12.5-3.02-7.94-1.59-14.3-4.6-6.35-3.18-10-8.26-3.49-5.24-3.49-12.7 0-6.51 4.13-12.4 4.29-6.03 12.5-9.84t20.3-3.81q9.37 0 16.4 2.22 7.14 2.06 11.9 5.56 4.92 3.33 7.46 6.98t2.7 6.51q0.159 1.75-0.952 3.02-1.11 1.11-2.54 1.11h-19q-0.635 0-1.27-0.159-0.476-0.159-0.952-0.318-2.06-0.794-3.97-2.22-1.75-1.43-4.13-2.7-2.22-1.27-5.56-1.27t-5.4 1.59q-1.9 1.59-1.9 3.97 0 1.9 1.11 3.49 1.27 1.59 5.24 2.86 4.13 1.27 12.9 2.86 11.1 1.75 17.6 5.87 6.67 3.97 9.37 9.21 2.86 5.24 2.86 10.8 0 7.94-4.76 14-4.6 5.87-13.8 9.21-9.21 3.18-22.4 3.18z"/><path d="m425 165q-10.6 0-18.6-3.18-7.78-3.18-12.1-10.3t-4.29-18.6v-27.6h-12.5q-1.75 0-3.02-1.11-1.11-1.27-1.11-2.86v-14.8q0-1.75 1.11-2.86 1.27-1.27 3.02-1.27h12.5v-26q0-1.75 1.11-2.86 1.27-1.27 2.86-1.27h21.3q1.75 0 2.86 1.27 1.27 1.11 1.27 2.86v26h19.8q1.75 0 2.86 1.27 1.27 1.11 1.27 2.86v14.8q0 1.59-1.27 2.86-1.11 1.11-2.86 1.11h-19.8v25.1q0 4.92 1.9 7.78 1.9 2.7 6.35 2.7h13q1.59 0 2.7 1.27 1.27 1.11 1.27 2.86v15.9q0 1.75-1.27 3.02-1.11 1.11-2.7 1.11z"/><path d="m257 165q-10.6 0-18.6-3.18-7.78-3.18-12.1-10.3t-4.29-18.6v-27.6h-12.5q-1.75 0-3.02-1.11-1.11-1.27-1.11-2.86v-14.8q0-1.75 1.11-2.86 1.27-1.27 3.02-1.27h12.5v-26q0-1.75 1.11-2.86 1.27-1.27 2.86-1.27h21.3q1.75 0 2.86 1.27 1.27 1.11 1.27 2.86v26h19.8q1.75 0 2.86 1.27 1.27 1.11 1.27 2.86v14.8q0 1.59-1.27 2.86-1.11 1.11-2.86 1.11h-19.8v25.1q0 4.92 1.9 7.78 1.9 2.7 6.35 2.7h13q1.59 0 2.7 1.27 1.27 1.11 1.27 2.86v15.9q0 1.75-1.27 3.02-1.11 1.11-2.7 1.11z"/><path d="m154 166q-16.4 0-27.1-4.6t-16.4-12.1q-5.4-7.46-5.72-15.7 0-1.43 0.952-2.38 1.11-1.11 2.54-1.11h23q2.22 0 3.49 0.794t2.38 2.06q1.43 1.9 3.49 3.81 2.06 1.75 5.4 2.86 3.33 0.952 7.94 0.952 8.1 0 12.2-2.22 4.29-2.38 4.29-6.51 0-3.02-2.38-4.92-2.22-2.06-7.46-3.49-5.24-1.59-14.3-3.33-12.2-2.22-21-6.35t-13.3-10.8q-4.44-6.83-4.44-16.8 0-10.2 5.56-17.9 5.72-7.78 15.9-12.1 10.2-4.44 23.8-4.44 11.3 0 19.8 3.02 8.73 2.86 14.6 7.78 5.87 4.76 8.89 10.3 3.18 5.4 3.33 10.5 0 1.27-0.952 2.38-0.952 0.952-2.38 0.952h-24.3q-1.9 0-3.18-0.635t-2.38-2.06q-0.952-2.7-4.44-4.76t-9.05-2.06q-6.03 0-9.37 2.06-3.18 2.06-3.18 6.19 0 2.7 1.9 4.76 1.9 1.9 6.51 3.49 4.76 1.43 13 3.18 14.8 2.38 23.8 6.51 9.21 3.97 13.3 10.6 4.29 6.51 4.29 16.5 0 11.1-6.35 19t-17.5 12.2-25.4 4.29z"/><path d="m-79.2 52.2c-1.06 0-2.01 0.424-2.86 1.27-0.741 0.741-1.11 1.69-1.11 2.86v104c0 1.16 0.371 2.17 1.11 3.02 0.847 0.741 1.8 1.11 2.86 1.11h20.6c1.16 0 2.12-0.37 2.86-1.11 0.847-0.847 1.27-1.85 1.27-3.02v-4.6c2.54 3.07 5.77 5.56 9.68 7.46 4.02 1.9 8.89 2.86 14.6 2.86 5.08 0 9.63-0.74 13.7-2.22 4.02-1.59 7.46-3.92 10.3-6.99 2.96-3.18 5.24-7.09 6.83-11.7 1.69-4.66 2.7-10.1 3.02-16.2 0.106-2.22 0.159-4.18 0.159-5.87s-0.0528-3.6-0.159-5.71c-0.212-5.82-1.16-11-2.86-15.6-1.59-4.66-3.86-8.52-6.83-11.6-2.96-3.18-6.46-5.61-10.5-7.3-4.02-1.69-8.57-2.54-13.7-2.54-4.97 0-9.37 0.847-13.2 2.54-3.7 1.59-6.83 3.65-9.37 6.19v-33.2c0-1.16-0.424-2.12-1.27-2.86-0.741-0.847-1.69-1.27-2.86-1.27zm39.1 51.9c3.18 0 5.61 0.635 7.3 1.9s2.91 3.02 3.65 5.24c0.847 2.12 1.38 4.55 1.59 7.3 0.212 3.39 0.212 6.77 0 10.2-0.212 2.75-0.741 5.24-1.59 7.46-0.741 2.12-1.96 3.81-3.65 5.08s-4.13 1.9-7.3 1.9c-2.96 0-5.34-0.635-7.14-1.9-1.8-1.38-3.12-3.12-3.97-5.24-0.847-2.12-1.32-4.45-1.43-6.99-0.106-2.22-0.159-4.23-0.159-6.03s0.0533-3.76 0.159-5.87c0.106-2.43 0.582-4.6 1.43-6.51 0.952-1.9 2.33-3.44 4.13-4.6 1.8-1.27 4.13-1.9 6.98-1.9z"/><path d="m-151 166q-8.73 0-15.9-3.97-6.98-4.13-11.1-12.1t-4.13-19.8v-44.1q0-1.75 1.11-2.86 1.27-1.27 3.02-1.27h23q1.75 0 2.86 1.27 1.27 1.11 1.27 2.86v43q0 13.7 12.1 13.7 5.72 0 9.05-3.49 3.33-3.65 3.33-10.2v-43q0-1.75 1.11-2.86 1.27-1.27 3.02-1.27h22.9q1.75 0 2.86 1.27 1.27 1.11 1.27 2.86v74.3q0 1.75-1.27 3.02-1.11 1.11-2.86 1.11h-21.1q-1.75 0-3.02-1.11-1.11-1.27-1.11-3.02v-5.72q-3.97 5.72-10.8 8.57-6.67 2.86-15.6 2.86z"/><path d="m-242 166q-14.9 0-26-4.76t-17.5-14.3q-6.19-9.52-6.67-24-0.159-6.51-0.159-14t0.159-14.3q0.476-14.1 6.83-23.7 6.51-9.68 17.6-14.4 11.1-4.92 25.7-4.92 10.5 0 19.5 2.54t15.9 7.62q6.98 4.92 11 12.2 4.13 7.14 4.29 16.5 0 1.43-1.11 2.54-0.952 0.952-2.38 0.952h-24.8q-2.06 0-3.33-0.952-1.11-0.952-1.9-3.33-2.06-7.46-6.51-10-4.29-2.7-10.8-2.7-7.62 0-12.2 4.13-4.44 4.13-4.76 14.3-0.476 13 0 26.7 0.318 10.2 4.76 14.3 4.6 4.13 12.2 4.13 6.51 0 11-2.7 4.44-2.86 6.35-10 0.794-2.54 1.9-3.33 1.27-0.952 3.33-0.952h24.8q1.43 0 2.38 1.11 1.11 0.952 1.11 2.38-0.159 9.37-4.29 16.7-3.97 7.14-11 12.2-6.83 4.92-15.9 7.46t-19.5 2.54z"/></g></g></g></svg>
