<svg height="500" width="500" xmlns="http://www.w3.org/2000/svg"><path clip-rule="evenodd" d="M297.3 38.8h150.4l-6.9 42.4c-4.7 31.4-10 62.7-13.9 94.2a758.3 758.3 0 0 0-5.4 69.7c-1.2 40.6 3 80.8 11.9 120.5A820 820 0 0 1 444 422c2 13.5-3.6 22-16.7 26-8 2.3-16.6 4-25 4-35.9 0-71.8-1.4-107.7-.8-23 .4-46 3.9-69 5.4-17.9 1.1-35.7 2-53.6 1.8-21.4-.2-42.9-1.6-64.3-2.7a24 24 0 0 1-22-22.2c-.3-4 .8-6 4.9-6.6 65.4-11.2 123.1-40.7 179.5-74 25.5-15 36.3-38 41-65.4 5.7-33.6 5.6-67.4 2.6-101.2-3.7-39.9-8.2-79.7-12.5-119.6-1-9.3-2.5-18.4-3.9-28z" fill-rule="evenodd"/><path d="M44.9 98.2h55v55h-55zM121.9 98.2h55v55h-55zM198.8 98.2h55v55h-55zM45.2 175.2h55v55h-55zM122.1 175.2h55v55h-55zM199.1 175.2h55v55h-55zM45.3 252.2h55v55h-55zM122.3 252.2h55v55h-55zM199.3 252.2h55v55h-55z"/></svg>