<svg height="500" width="500" xmlns="http://www.w3.org/2000/svg"><g clip-rule="evenodd" fill-rule="evenodd"><path d="m233.7 349.1 86.6-238.4c40 .6 75.7 13.6 106.8 38.9l-86.6 238A235 235 0 0 0 233.7 349zM330.8 80c4.5-12 8.6-23.4 13-34.7a6.1 6.1 0 0 1 2.9-3.3c13.6-5.4 27.5-9.1 42.2-9.4 21-.5 35.9 10.4 48 25.9 5.3 6.6 9.5 14.1 14 21.3.6 1 1 2.5.7 3.5l-13 35.4a236 236 0 0 0-107.8-38.6zM251.5 466l-2-4.3-30.5-65.3c-1.5-3.2.3-13.6 2.9-15.8.8-.7 2.3-.8 3.5-.8a169 169 0 0 1 101.4 36.8c2 1.6 2.3 3 1.7 5.6-1.7 7-5.7 11-12.4 13.9-21.5 9.4-42.7 19.7-64.6 30z"/></g><path d="M71.6 62.5h100v100h-100zM72.1 202.5h100v100h-100zM72.3 342.5h100v100h-100z"/></svg>