<svg height="500" width="500" xmlns="http://www.w3.org/2000/svg"><path d="M46 22.1 23.8 44.3l203.8 203.9L28.9 446.9 51 469l198.7-198.7L443.4 464l22.2-22.3L272 248.2 470.7 49.5l-22.2-22.3L249.8 226z"/><path d="m131.8 19.6-28.3 28.3 28.3 28.3L160 47.9zM171.5 59l-28.3 28.3 28.3 28.3 28.3-28.3zm213.1.8c-85.5 0-109.5 57-116 126.1L394.3 60l-9.8-.2zM456 85.5 293.3 248.2 456.1 411c21.2-37.6-9.1-104.8-12.7-161 3.4-54.2 38.7-126.6 12.6-164.5zm-244.8 13-28.3 28.3 28.3 28.3 28.3-28.3zm-158.6.3L24.3 127l28.3 28.2 28.2-28.2zm39.7 39.4L64 166.5l28.3 28.3 28.3-28.3zm39.7 39.6L103.7 206l28.3 28.2 28.3-28.2zm-.4 75.8-28.2 28.3 28.2 28.2L160 282zM92 293.2l-28.2 28.2L92 349.7l28.2-28.2zm176 16.6c5.2 66.6 25.7 127.5 104.6 130.3 9.3.3 17.4 0 25-.7zm-57 22.7-28.2 28.3 28.3 28.3 28.2-28.3zm-158.5.3L24.2 361l28.3 28.3L80.7 361zm119 39.3-28.3 28.3 28.3 28.3 28.2-28.3zm-39.6 39.6L103.6 440l28.3 28.3L160 440z"/></svg>