<svg height="500" width="500" xmlns="http://www.w3.org/2000/svg"><path d="m24.3 127 28.3-28.2L80.8 127l-28.2 28.2zM63.9 87.5l28.3-28.3 28.2 28.3-28.2 28.2zM103.5 47.9l28.3-28.3L160 47.9l-28.2 28.3zM64 166.5l28.3-28.3 28.3 28.3-28.3 28.3zM103.6 127 132 98.5l28.3 28.3-28.3 28.3zM143.2 87.3 171.5 59l28.3 28.3-28.3 28.3zM103.7 206l28.3-28.2 28.3 28.3-28.3 28.2zM143.3 166.4l28.3-28.2 28.3 28.2-28.3 28.3zM182.9 126.8l28.3-28.2 28.3 28.2-28.3 28.3zM24.2 361l28.3-28.2L80.7 361l-28.2 28.3zM63.8 321.5 92 293.2l28.3 28.3-28.2 28.2zM103.4 281.9l28.2-28.3 28.3 28.3-28.3 28.2zM64 400.5l28.2-28.3 28.3 28.3-28.3 28.3zM103.5 360.9l28.3-28.3 28.3 28.3-28.3 28.3zM143.1 321.3l28.3-28.3 28.3 28.3-28.3 28.3zM103.6 440l28.3-28.3L160 440 132 468.3zM143.2 400.4l28.3-28.3 28.2 28.3-28.2 28.3zM182.8 360.8l28.3-28.3 28.2 28.3-28.2 28.3zM443.4 250c4.9-76.7 73.9-190.2-58.8-190.2-111.1 0-118.6 96.1-118.6 190.1 0 85 4 186.6 106.6 190.2 142.8 5 76.2-105 70.8-190.2z"/></svg>