<svg height="500" width="500" xmlns="http://www.w3.org/2000/svg"><path clip-rule="evenodd" d="M298.5 333v-8.2h-43.7c-19.1 0-38.3 0-57.4-.2a20.8 20.8 0 0 1-20.4-17.3c-1.8-9.1 3-19 12-23 3.4-1.4 7.5-2 11.2-2 40.8-.1 81.6 0 122.4-.2 9.2 0 15.4 4.3 21.7 10.4 25.2 25 51 49.4 76.5 74 3.6 3.5 6.9 7.4 10.8 10.4 6.2 4.8 8.3 10.6 8 18.5-.5 20.1-.2 40.3-.1 60.4v8.5c-9.6-9.1-17.7-17.7-26.6-25.4-13.7-11.9-27.8-23.3-41.8-34.7-8.6-7-18.8-9.4-29.5-9.3-23.1.2-46.2 1.2-69.4 1.4-28.3.2-56.6-.4-85 0-12.6.3-23-4.4-31.4-12.7-29.8-29-59.2-58.6-88.8-88a20.7 20.7 0 0 1-5.2-22.9 20 20 0 0 1 18-13.7c6.9-.7 12.6 2 17.6 6.7l59.2 55.2c3.8 3.5 7.5 7.1 11.4 10.5 1.3 1 3.2 2 4.8 2h124l1.7-.4z" fill-rule="evenodd"/><path d="M131.3 43.3h55.9v56h-56zM209.5 43.3h56v56h-56zM287.8 43.3h56v56h-56zM131.5 121.6h56v56h-56zM209.8 121.6h56v56h-56zM288.1 121.6h56v56h-56zM131.7 199.9h55.9v56h-56zM210 199.9h55.9v56h-56zM288.3 199.9h55.9v56h-56z"/></svg>