<svg height="500" width="500" xmlns="http://www.w3.org/2000/svg"><path d="M30.3 26.8h60.9v60.9h-61zM124.8 26.8h60.9v60.9h-60.9zM30.3 123.1h60.9V184h-61zM124.8 123.1h60.9V184h-60.9zM219.6 27.1h61V88h-61zM314.2 27.1H375V88h-60.8zM219.6 123.4h61v60.9h-61zM314.2 123.4H375v60.9h-60.8zM30.3 219.7h60.9v60.9h-61zM124.8 219.7h60.9v60.9h-60.9zM30.3 316h60.9V377h-61zM124.8 316h60.9V377h-60.9zM219.6 219.7h61v60.9h-61zM314.2 219.7H375v60.9h-60.8zM219.6 316h61V377h-61zM314.2 316H375V377h-60.8zM408.7 27.1h60.9V88h-61zM408.7 123.4h60.9v60.9h-61zM408.7 219.7h60.9v60.9h-61zM408.7 316h60.9V377h-61zM30.4 412.3h61v60.9h-61zM125 412.3h60.8v60.9H125zM219.8 412.3h60.9v60.9h-60.9zM314.3 412.3h60.9v60.9h-60.9zM408.8 412.3h61v60.9h-61z"/></svg>