<svg height="500" width="500" xmlns="http://www.w3.org/2000/svg"><path d="M21.8 18.5h56v56h-56zM101.7 18.5h56v56h-56zM21.8 99.9h56v56h-56zM101.7 99.9h56v56h-56zM182.4 18.8h56v56h-56zM262.3 18.8h56v56h-56zM182.4 100.1h56v56h-56zM262.3 100.1h56v56h-56zM21.8 181.5h56v56h-56zM101.7 181.5h56v56h-56zM21.8 262.8h56v56h-56zM101.7 262.8h56v56h-56zM182.4 181.5h56v56h-56zM262.3 181.5h56v56h-56zM182.4 262.8h56v56h-56zM262.3 262.8h56v56h-56zM341.5 18.8h56v56h-56zM341.5 100.1h56v56h-56zM341.5 181.5h56v56h-56zM341.5 262.8h56v56h-56zM22 344.1h56v56H22zM101.8 344.1h56v56h-56zM182.6 344.1h56v56h-56zM262.4 344.1h56v56h-56zM341.6 344.1h56v56h-56zM421.4 18.8h56v56h-56zM422.2 100.1h56v56h-56zM422.2 181.5h56v56h-56zM422.2 262.8h56v56h-56zM421.6 344.1h56v56h-56zM22.6 425.5h56v56h-56zM102.4 425.5h56v56h-56zM182.5 425.5h56v56h-56zM262.4 425.5h56v56h-56zM342.2 425.5h56v56h-56zM422.2 425.5h56v56h-56z"/></svg>