<svg height="500" width="500" xmlns="http://www.w3.org/2000/svg"><path d="M29.2 25.7h46.1v46.1h-46zM95 25.7h46.1v46.1H95zM29.2 92.7h46.1V139h-46zM95 92.7h46.1V139H95zM161 25.9h46.1V72H161zM226.8 25.9h46.1V72h-46.1zM161 93h46.1v46H161zM226.8 93h46.1v46h-46.1zM29.2 160h46.1v46h-46zM95 160h46.1v46H95zM29.2 227h46.1V273h-46zM95 227h46.1V273H95zM161 160h46.1v46H161zM226.8 160h46.1v46h-46.1zM161 227h46.1V273H161zM226.8 227h46.1V273h-46.1zM292.6 25.9h46.1V72h-46.1zM292.6 93h46.1v46h-46.1zM292.6 160h46.1v46h-46.1zM292.6 227h46.1V273h-46.1zM29.3 294h46.2V340H29.3zM95.1 294h46.1V340h-46zM161.1 294h46.1V340h-46zM226.9 294H273V340H227zM292.7 294h46.1V340h-46.1zM358.5 25.9h46.1V72h-46.1zM358.5 93h46.1v46h-46.1zM358.5 160h46.1v46h-46.1zM358.5 227h46.1v46h-46.1zM424.3 25.9h46V72h-46zM424.3 93h46v46h-46zM424.3 160h46v46h-46zM424.3 227h46v46h-46zM358.6 294h46.1V340h-46.1zM424.4 294h46V340h-46zM29.3 361h46.2v46.1H29.3zM95.1 361h46.1v46.1h-46zM161.1 361h46.1v46.1h-46zM226.9 361H273v46.1H227zM292.7 361h46.1v46.1h-46.1zM29.4 428h46.2v46.2H29.4zM95.2 428h46.1v46.2h-46zM161.2 428h46.1v46.2h-46zM227 428h46.1v46.2H227zM292.8 428h46.1v46.2h-46.1zM358.6 361h46.1v46.1h-46.1zM424.4 361h46v46.1h-46zM358.7 428h46.1v46.2h-46.1zM424.5 428h46.1v46.2h-46.1z"/></svg>