<svg height="500" width="500" xmlns="http://www.w3.org/2000/svg"><g clip-rule="evenodd" fill-rule="evenodd"><path d="M251.2 344.9h-47c-3.3.1-5-.6-6-4l-29.2-90c-1-3-.7-4.6 2-6.6 25.6-18.5 51.2-37 76.7-55.7 2.5-1.8 4-1.9 6.6 0a12199 12199 0 0 0 77.5 56.3c2.3 1.7 2.9 3.1 2 5.7a16846 16846 0 0 0-29.6 91c-1 2.8-2.4 3.4-5 3.3h-48zM81.2 360.8h102c3.5 0 5.1.8 6.3 4.4 9.8 31 20 61.9 30 92.8l1.3 4.2c-1.5.2-2.7.5-4 .5h-98.4c-2.8 0-4.5-.3-5.5-3.5-10.2-32-20.6-63.8-31-95.7l-.7-2.7zM420.9 361.1 408 400.5l-18.8 58.3c-.8 2.4-1.5 4-4.6 4l-100-.1-2.8-.4 7.3-23 24.2-74.7c1-2.8 2.2-3.9 5.2-3.9l99 .1 3.4.3zM62.5 303.5c-4.6-13.7-9-27-13.2-40.2-6.2-19-12.3-38.2-18.6-57.2-.8-2.5-1-4.2 1.5-6 27.5-19.8 55-39.7 82.4-59.7l1.6-.5 32.7 100.8-86.4 62.8zM337.2 103.9l-36 26.2-46.9 34c-2 1.6-3.6 2.4-6 .5l-81.2-59-2.7-1.4 44.1-32 39.2-28.5c2-1.5 3.5-2.3 6-.5l83.5 60.7zM386.5 139.8l57 41.4c8.7 6.3 17.4 12.4 25.8 18.9 1.3 1 2.6 3.7 2.1 5-10.2 32.1-20.7 64.1-31.1 96.1l-1 2.1-40.5-29.4c-14-10.1-28-20.3-41.9-30.6-1.3-1-2.7-3.7-2.3-5 10.4-32.7 21-65.3 31.9-98.6zM373 129.9l-33 101.3-75.4-54.8 86.2-62.6 22.1 16.1zM205.4 361h92.4l-6.4 19.8c-8.4 25.9-17 51.7-25.2 77.6-1 3.3-2.5 4.5-5.9 4.4-6.3-.3-12.7 0-19-.2-1.5-.1-3.8-1.5-4.2-2.8-10.7-32.4-21.3-64.9-31.8-97.4V361zM154.1 256.7l28.7 88.2h-5.1l-97 .1c-4 0-5.6-1.3-6.6-4.9-1.6-5.9-3.8-11.6-5.4-17.6-.4-1.3.2-3.8 1.2-4.5 27.7-20.4 55.6-40.6 84.2-61.3zM237.4 176.4l-74.9 54.4-6.8-21c-8.2-25.4-16.4-50.9-24.8-76.2-1-3.1-.7-4.8 2-6.6 6-4.1 12-8.6 18.3-13.2l86.2 62.6zM320 344.6l28.4-87.6 27.3 20 55.3 40c2.6 1.8 3.3 3.4 2.1 6.5-2.2 6-4 12-5.8 18-.7 2.5-1.8 3.5-4.5 3.5l-100.8-.1-2-.3z"/></g></svg>